<?xml version="1.0" standalone="no"?>
<!DOCTYPE svg PUBLIC "-//W3C//DTD SVG 20010904//EN"
 "http://www.w3.org/TR/2001/REC-SVG-20010904/DTD/svg10.dtd">
<svg version="1.0" xmlns="http://www.w3.org/2000/svg"
 width="448.000000pt" height="104.000000pt" viewBox="0 0 448.000000 104.000000"
 preserveAspectRatio="xMidYMid meet">

<g transform="translate(0.000000,104.000000) scale(0.100000,-0.100000)"
fill="#000000" stroke="none">
<path d="M1216 814 c-22 -22 -20 -57 5 -80 19 -17 23 -17 47 -3 33 18 40 54
16 80 -21 23 -47 24 -68 3z"/>
<path d="M780 530 l0 -280 45 0 45 0 0 120 0 120 110 0 110 0 0 40 0 40 -110
0 -110 0 0 80 0 80 135 0 135 0 0 40 0 40 -180 0 -180 0 0 -280z"/>
<path d="M1800 530 l0 -280 40 0 40 0 0 120 c0 164 25 219 101 222 94 3 109
-26 109 -207 l0 -135 46 0 46 0 -4 153 c-3 118 -8 159 -21 184 -44 83 -172
104 -251 42 l-26 -20 0 100 0 101 -40 0 -40 0 0 -280z"/>
<path d="M2420 740 c-20 -27 -26 -30 -80 -30 -91 0 -90 3 -90 -229 0 -140 3
-200 12 -209 17 -17 519 -17 536 0 9 9 12 69 12 209 0 232 1 229 -90 229 -54
0 -61 3 -82 30 -21 29 -24 30 -109 30 -86 0 -88 -1 -109 -30z m198 -54 c16
-21 29 -25 78 -28 l59 -3 0 -170 0 -170 -225 0 -225 0 0 170 0 170 62 3 c52 2
64 6 77 27 15 23 23 25 86 25 61 0 71 -3 88 -24z"/>
<path d="M2473 611 c-50 -23 -74 -57 -80 -114 -14 -143 182 -208 257 -84 71
116 -53 255 -177 198z m91 -51 c32 -12 58 -62 50 -95 -8 -33 -50 -65 -84 -65
-86 0 -112 116 -35 158 25 14 37 14 69 2z"/>
<path d="M1485 661 c-48 -12 -75 -30 -95 -64 -23 -37 -25 -65 -8 -102 16 -36
53 -53 149 -70 85 -14 109 -27 109 -55 0 -71 -163 -76 -190 -5 -8 20 -16 25
-44 25 -45 0 -51 -12 -29 -58 25 -52 87 -82 171 -82 105 0 172 48 172 125 0
71 -48 106 -165 120 -64 7 -105 27 -105 50 0 7 12 23 28 35 38 30 107 23 137
-14 16 -20 30 -26 59 -26 37 0 38 1 31 28 -8 32 -31 59 -65 77 -33 17 -117 25
-155 16z"/>
<path d="M3438 660 c-91 -27 -140 -96 -141 -195 -1 -93 31 -151 103 -187 108
-56 225 -24 276 74 20 38 19 38 -30 38 -36 0 -46 -4 -51 -20 -8 -26 -55 -50
-95 -50 -42 0 -87 27 -99 59 -24 66 -36 61 139 61 l160 0 0 26 c0 137 -131
234 -262 194z m145 -100 c48 -54 41 -60 -83 -60 -121 0 -128 4 -89 54 28 36
55 47 104 41 29 -3 48 -12 68 -35z"/>
<path d="M1202 458 l3 -203 43 -3 42 -3 0 205 0 206 -45 0 -45 0 2 -202z"/>
<path d="M2889 613 c10 -26 46 -119 80 -205 l61 -158 -20 -40 c-19 -38 -23
-40 -65 -40 l-45 0 0 -40 0 -40 61 0 c53 0 64 4 88 28 16 15 45 72 68 132 23
58 68 174 101 258 l61 153 -47 -3 -46 -3 -52 -149 c-29 -81 -55 -150 -57 -152
-2 -2 -28 65 -58 148 l-55 153 -47 3 -47 3 19 -48z"/>
</g>
</svg>
